# xmcd
#
# Track frame offsets:
# 150
# 32242
# 56370
# 77857
# 101530
# 128312
# 149052
# 177185
# 206665
# 232505
# 261162
# 295275
#
# Disc length: 4365 seconds
#
#
# Revision: 2
# Processed by: cddbd v1.5.1PL0 Copyright (c) Steve Scherf et al.
# Submitted via: FreeRIP 2.92 
#
DISCID=a3110b0c
DTITLE=D'Angelo - Voodoo
DYEAR=2000
DGENRE=R and B
TTITLE0=Playa Playa
TTITLE1=Devil Pie
TTITLE2=Left and Right (w/ MEthod Man and RedMan)
TTITLE3=The line
TTITLE4=Send it on
TTITLE5=Chicken Grease
TTITLE6=One mo gun
TTITLE7=The Root
TTITLE8=Spanish Joint
TTITLE9=Feel like makin' love
TTITLE10=Greatdayndamorning
TTITLE11=How does it feel
EXTD=
EXTT0=
EXTT1=
EXTT2=
EXTT3=
EXTT4=
EXTT5=
EXTT6=
EXTT7=
EXTT8=
EXTT9=
EXTT10=
EXTT11=
PLAYORDER=
